<svg width="64" height="64" viewBox="0 0 64 64" xmlns="http://www.w3.org/2000/svg" xmlns:xlink="http://www.w3.org/1999/xlink"><title>C53B62E6-541F-4E3C-8EE3-3A9E32773D65</title><defs><ellipse id="a" cx="38.57" cy="14.5" rx="5.57" ry="5.5"/><mask id="b" x="-2" y="-2" width="15.141" height="15"><path fill="#fff" d="M31 7h15.141v15H31z"/><use xlink:href="#a"/></mask></defs><g transform="translate(1 15)" fill="none" fill-rule="evenodd"><use stroke="#45C0F8" mask="url(#b)" stroke-width="4" xlink:href="#a"/><path d="M38.504 28.584c-2.383 0-4.759-.546-6.882-1.583H1.087c-.6 0-1.087-.468-1.087-1.045v-11.33C0 7.137 4.337 1.999 12.127 1.999h19.49c4.25-2.078 9.526-2.078 13.776 0h2.777c7.79 0 13.836 5.138 13.836 12.629v11.329c0 .577-.486 1.044-1.087 1.044H45.387a15.75 15.75 0 0 1-6.883 1.584z" stroke="#45C0F8" stroke-width="2"/><path fill="#45C0F8" d="M9 10h10v2H9zM9 14h10v2H9zM9 18h10v2H9z"/><path d="M58 28v.99a1.996 1.996 0 0 1-1.998 2.005h-4.004A2 2 0 0 1 50 28.99V28M12 28v.99a1.996 1.996 0 0 1-1.998 2.005H5.998A2 2 0 0 1 4 28.99V28" stroke="#45C0F8" stroke-width="2"/></g></svg>