<svg width="150" height="75" viewBox="0 0 150 75" xmlns="http://www.w3.org/2000/svg" xmlns:xlink="http://www.w3.org/1999/xlink"><title>0D69B700-0068-4FF3-BA56-B5A12D09E37A</title><defs><path id="a" d="M6.436.484h134.17v43.422H1V.484h5.436V5.91H1V.484h5.436z"/><path id="b" d="M1 43.906h139.605V.484H1z"/></defs><g transform="translate(4)" fill="none" fill-rule="evenodd"><path d="M3.476 0c1.578 0 2.86 1.27 2.86 2.831 0 1.56-1.282 2.83-2.86 2.83-1.577 0-2.854-1.27-2.854-2.83C.622 1.27 1.9.001 3.476.001" fill="#EA2134"/><path fill="#2B368C" d="M1.419 24.626h4.083V8.28H1.42zM9.588 24.626h4.088V0H9.588z"/><mask id="c" fill="#fff"><use xlink:href="#b"/></mask><path fill="#EC008B" mask="url(#c)" d="M1.504 41.462h1.478V31.064H1.504v-2.13h10.695v4.392h-2.07v-2.262H5.464v3.99h1.782v-1.995h1.89v5.984h-1.89v-1.972H5.465v4.391h4.663v-2.664h2.07v4.794H1.505zM12.955 41.462h.81l3.836-5.4-3.62-4.998h-.81v-2.13h5.294v2.13h-1.351l2.16 3.137 2.232-3.137h-1.35v-2.13h4.97v2.13h-.81l-3.637 4.997 3.852 5.401h.81v2.13h-5.437v-2.13h1.53l-2.43-3.517-2.448 3.517h1.53v2.13h-5.131zM33.947 36.982l-1.764-5.626-1.8 5.626h3.564zm-8.317 4.48h.99l4.159-12.527h3.062l4.12 12.527h.99v2.13h-5.058v-2.13h1.476l-.774-2.35h-4.88l-.737 2.35h1.476v2.13H25.63v-2.13zM39.456 41.462h1.477V31.064h-1.477v-2.13h5.473l2.485 10.872h.037l2.448-10.871h5.51v2.129h-1.477v10.398h1.476v2.13h-5.221v-2.13h1.352V31.064h-.037l-2.954 12.528h-2.556L43.04 31.064h-.037v10.398h1.351v2.13h-4.897zM60.72 41.462h1.476V31.064H60.72v-2.13h10.694v4.392h-2.07v-2.262H64.68v3.99h1.783v-1.995h1.89v5.984h-1.89v-1.972H64.68v4.391h4.663v-2.664h2.07v4.794H60.72zM72.225 41.462H73.7V31.064h-1.476v-2.13h5.004l4.538 10.893h.034v-8.763h-1.476v-2.13h5.204v2.13h-1.476v12.528h-3.276l-4.79-11.318h-.035v9.188h1.476v2.13h-5.203zM97.808 34.09h-2.251c-.09-2.287-1.421-3.34-3.185-3.34-2.648 0-3.423 2.958-3.423 5.871 0 2.825 1.1 5.155 3.602 5.155 1.674 0 2.969-1.322 3.006-3.563h-1.781v-2.128h5.31v2.128h-1.172v5.379h-2.249v-1.66h-.036c-.647 1.414-1.944 1.974-3.17 1.974-4.138 0-6.139-3.272-6.139-7.53 0-4.484 1.856-7.755 5.618-7.755 1.512 0 2.81.494 3.582 1.748h.037v-1.434h2.251v5.154zM99.68 41.462h1.478V31.064h-1.477v-2.13h5.852v2.13h-1.89v10.398h3.868v-3.025h2.163v5.155H99.68zM110.591 41.462h1.476V31.064h-1.476v-2.13h5.438v2.13h-1.477v10.398h1.477v2.13h-5.438zM117.398 38.661h2.157c0 1.145.182 1.95.597 2.488.413.517 1.044.739 1.925.739.865 0 1.945-.67 1.945-1.881 0-4.46-6.572-1.121-6.572-7.128 0-2.848 1.675-4.258 3.818-4.258 1.152 0 2.106.269 2.826 1.502h.034v-1.188h2.073v4.572h-2.16c-.037-.985-.217-1.704-.594-2.173-.36-.47-.92-.697-1.73-.697-1.009 0-1.872.54-1.872 1.905 0 3.407 6.66.897 6.66 6.948 0 2.758-1.69 4.416-3.834 4.416-1.224 0-2.392-.179-3.168-1.524h-.037v1.21h-2.068v-4.93zM127.606 41.462h1.476V31.064h-1.476v-2.13h5.67v2.13h-1.71v3.99h5.077v-3.99h-1.712v-2.13h5.674v2.13h-1.478v10.398h1.478v2.13h-5.674v-2.13h1.712v-4.279h-5.077v4.279h1.71v2.13h-5.67z"/><path d="M26.52 16.268v2.218a2.4 2.4 0 0 1-.107.752 3.4 3.4 0 0 1-1.163 1.576c-.574.422-1.316.71-2.267.713-.622-.003-1.161-.183-1.53-.523-.37-.342-.63-.847-.635-1.685.002-.638.169-1.1.448-1.478.42-.564 1.172-.975 2.127-1.225.93-.247 2.033-.34 3.126-.348zm4.24 7.526c-.158-1.046-.224-2.382-.224-3.749v-5.991c-.003-1.671-.305-3.427-1.336-4.815a5.315 5.315 0 0 0-2.112-1.682c-.903-.401-2-.621-3.302-.621-2.144.003-4.194.58-5.648 1.476l-.384.236 1.051 3.082.624-.417c1.015-.682 2.493-1.094 3.922-1.094h.069c.74 0 1.276.139 1.667.334.593.3.917.738 1.115 1.258.166.432.23.901.247 1.317-2.94.048-5.285.576-6.963 1.617-.887.547-1.579 1.245-2.049 2.073-.468.83-.704 1.785-.704 2.829 0 1.294.47 2.584 1.405 3.56.929.97 2.334 1.605 4.095 1.605h.018c1.945-.004 3.546-.733 4.625-1.724l.177 1.362h3.807l-.1-.656z" fill="#2B368C" mask="url(#c)"/></g></svg>