<svg width="124" height="67" viewBox="0 0 124 67" xmlns="http://www.w3.org/2000/svg"><title>F767F4AC-EE37-4C34-B540-9B562D737D7F</title><g fill="none" fill-rule="evenodd"><path d="M26.57 44.78c0 .106.084.189.19.189h16.08c.104 0 .13-.056.053-.127L26.706 28.79c-.075-.07-.136-.046-.136.06v15.93zM36.475 35.736a.19.19 0 0 0 0 .268l7.006 6.947c.072.076.136.046.136-.056V28.85c0-.106-.064-.13-.136-.06l-7.006 6.946zM78.466 35.25c0-.1-.087-.183-.192-.183h-4.717a.189.189 0 0 0-.19.184v9.529a.19.19 0 0 0 .19.189h4.717a.19.19 0 0 0 .192-.19v-9.528zM81.428 33.8a.189.189 0 0 0 .193-.186v-4.676a.19.19 0 0 0-.193-.187H70.405a.181.181 0 0 0-.185.187v4.676a.18.18 0 0 0 .185.185h11.023z" fill="#EC3950"/><path d="M120.622 35.25c0-.1-.086-.183-.19-.183h-4.72c-.098 0-.186.083-.186.184v9.529a.19.19 0 0 0 .187.189h4.719c.104 0 .19-.083.19-.19v-9.528zM123.585 33.8a.186.186 0 0 0 .187-.186v-4.676a.187.187 0 0 0-.187-.187h-11.027a.187.187 0 0 0-.188.187v4.676c0 .103.085.185.188.185h11.027z" fill="#07B4AA"/><path d="M87.225 38.625c0-.1-.086-.187-.195-.187h-4.742a.19.19 0 0 0-.187.187v6.155c0 .103.084.189.187.189h4.742a.192.192 0 0 0 .195-.19v-6.154zM96.652 38.625c0-.1-.09-.187-.195-.187H91.71a.193.193 0 0 0-.187.187v6.155c0 .103.09.189.187.189h4.747a.194.194 0 0 0 .195-.19v-6.154zM89.497 28.81c-.071-.08-.178-.08-.244 0l-7.029 8.219c-.066.08-.04.141.064.141h14.17c.105 0 .138-.061.063-.141l-7.024-8.22zM51.264 28.938a.185.185 0 0 0-.191-.184h-4.715a.187.187 0 0 0-.193.184V44.78a.19.19 0 0 0 .193.189h4.715a.188.188 0 0 0 .191-.189V28.938z" fill="#EE542E"/><path d="M52.536 28.93a.18.18 0 0 1 .166-.176" fill="#000"/><path d="M52.702 38.666c2.69-.09 4.843-2.273 4.843-4.957 0-2.689-2.152-4.872-4.843-4.955a.18.18 0 0 0-.165.175v9.554c0 .098.076.167.165.183" fill="#EE542E"/><path d="M9.998 28.945c0-.11-.083-.191-.19-.191H5.091a.184.184 0 0 0-.189.19v9.533c0 .103.08.19.189.19h4.717a.19.19 0 0 0 .19-.19v-9.532z" fill="#07B4AA"/><path d="M9.82 40.008a.18.18 0 0 1 .178.166" fill="#000"/><path d="M0 40.174c.084 2.665 2.29 4.795 5 4.795 2.711 0 4.91-2.13 4.998-4.795a.18.18 0 0 0-.178-.166H.18c-.101 0-.176.075-.18.166" fill="#07B4AA"/><path d="M24.02 28.938a.185.185 0 0 0-.188-.184h-4.72a.188.188 0 0 0-.192.184v9.539c0 .103.09.19.192.19h4.72a.19.19 0 0 0 .187-.19v-9.539zM24.02 40.09a.181.181 0 0 0-.183-.166h-4.72a.185.185 0 0 0-.185.186v4.675c0 .098.072.166.168.182 2.677-.09 4.83-2.222 4.92-4.877M17.644 28.938a.184.184 0 0 0-.188-.184h-4.72c-.105 0-.19.08-.19.184v11.05c0 .027.008.091.005.105.09 2.652 2.24 4.79 4.92 4.876.096-.013.173-.083.173-.176V28.938z" fill="#EE542E"/><path d="M65.557 35.236c0-.095.076-.169.167-.179" fill="#000"/><path d="M65.724 44.969c2.69-.086 4.845-2.27 4.845-4.951 0-2.69-2.155-4.873-4.845-4.96a.184.184 0 0 0-.167.178v9.557c0 .097.077.168.167.176" fill="#07B4AA"/><path d="M64.28 38.486c0 .096-.07.164-.165.18" fill="#000"/><path d="M64.115 28.754c-2.689.082-4.84 2.266-4.84 4.955 0 2.69 2.151 4.87 4.84 4.957.096-.016.165-.084.165-.18V28.93c0-.097-.07-.166-.165-.175" fill="#07B4AA"/><path d="M104.3 28.938a.185.185 0 0 0-.19-.184h-4.72a.184.184 0 0 0-.187.184V44.78c0 .106.083.189.187.189h4.72c.106 0 .19-.083.19-.189V28.938zM105.576 44.78c0 .106.084.189.19.189h4.453c.103 0 .126-.056.055-.127l-4.565-4.527c-.072-.075-.133-.05-.133.052v4.413zM105.741 38.666c2.689-.09 4.837-2.273 4.837-4.957 0-2.689-2.148-4.872-4.837-4.955-.094.01-.165.08-.165.175v9.554c0 .098.071.167.165.183" fill="#EC3950"/><path d="M7.476 0c1.578 0 2.86 1.27 2.86 2.831 0 1.56-1.282 2.83-2.86 2.83-1.577 0-2.854-1.27-2.854-2.83C4.622 1.27 5.9.001 7.476.001" fill="#EA2134"/><path fill="#2B368C" d="M5.419 24.626h4.083V8.28H5.42zM13.588 24.626h4.088V0h-4.088zM30.52 16.268v2.218a2.4 2.4 0 0 1-.107.752 3.4 3.4 0 0 1-1.163 1.576c-.574.422-1.316.71-2.267.713-.622-.003-1.161-.183-1.53-.523-.37-.342-.63-.847-.635-1.685.002-.638.169-1.1.448-1.478.42-.564 1.172-.975 2.127-1.225.93-.247 2.033-.34 3.126-.348zm4.24 7.526c-.158-1.046-.224-2.382-.224-3.749v-5.991c-.003-1.671-.305-3.427-1.336-4.815a5.315 5.315 0 0 0-2.112-1.682c-.903-.401-2-.621-3.302-.621-2.144.003-4.194.58-5.648 1.476l-.384.236 1.051 3.082.624-.417c1.015-.682 2.493-1.094 3.922-1.094h.069c.74 0 1.276.139 1.667.334.593.3.917.738 1.115 1.258.166.432.23.901.247 1.317-2.94.048-5.285.576-6.963 1.617-.887.547-1.579 1.245-2.049 2.073-.468.83-.704 1.785-.704 2.829 0 1.294.47 2.584 1.405 3.56.929.97 2.334 1.605 4.095 1.605h.018c1.945-.004 3.546-.733 4.625-1.724l.177 1.362h3.807l-.1-.656z"/></g></svg>