<svg width="90" height="67" viewBox="0 0 90 67" xmlns="http://www.w3.org/2000/svg" xmlns:xlink="http://www.w3.org/1999/xlink"><title>D15F1A50-C5F8-4598-BB0B-7DB41D43C83E</title><defs><path id="a" d="M16.36 15.691V.39H.273V15.69H16.36z"/></defs><g fill="none" fill-rule="evenodd"><path d="M7.165 43.655c-3.474 0-6.088-.394-6.778-.541v-4.739H4.44v2.329c.525.125 1.853.184 2.772.184 2.719 0 3.053-.452 3.053-1.68 0-1.273-.502-1.31-3.351-1.602-5.388-.555-6.588-1.082-6.588-5.34 0-3.45 2.18-4.327 6.964-4.327 2.288 0 5.902.375 6.716.627v4.34H9.955v-1.991c-.314-.065-1.975-.128-2.709-.128-2.03 0-2.512.27-2.512 1.434 0 1.166.352 1.39 3.074 1.67 5.573.554 6.921 1.032 6.921 5.15 0 3.616-1.616 4.614-7.564 4.614zM48.822 35.57c-.424-1.037-1.162-3.12-1.437-3.85a166.8 166.8 0 0 1-1.456 3.85l-.349.89h3.59l-.348-.89zm-.424 7.878v-2.994h2.287l-.638-1.62h-5.365l-.664 1.62h2.12v2.994h-7.15v-3.206h1.395l4.938-12.197h4.782l4.992 12.197h1.457v3.206h-8.154zM66.909 31.203h-3.357v4.011h3.393c.942 0 1.542-.521 1.542-2.055 0-1.54-.647-1.956-1.578-1.956zm.79 12.245v-2.83l-1.957-2.7h-2.19v2.536h1.879v2.994H57.93v-3.204h1.385v-8.811H57.93v-3.285h9.015c3.453 0 5.845.31 5.845 4.907 0 2.412-.75 3.638-2.537 4.254l2.144 2.935h1.513v3.204H67.7z" fill="#8BC541"/><g transform="translate(73.598 27.757)"><mask id="b" fill="#fff"><use xlink:href="#a"/></mask><path fill="#8BC541" mask="url(#b)" d="M12.344 5.591V2.846h-2.159v9.278h1.747v3.178H4.16v-3.204h1.743v-9.27h-2.16v2.744H0V0h16.085v5.591z"/></g><path fill="#8BC541" d="M12.527 53.908v-2.744h-2.16v9.274h1.749v3.18H4.339v-3.2h1.743v-9.275H3.926v2.742H.18v-5.567h16.093v5.59zM33.58 63.617v-3.203h1.387v-8.81H33.58v-3.287h14.362v5.59h-4.046v-2.514h-4.617v3.096h3.202v2.89h-3.202v3.243h4.617V57.74h4.046v5.876zM65.444 51.605v12.012h-4.05l-6.689-10.192c.1.877.145 2.794.145 4.08v2.914h1.718v3.198h-6.672V60.42H51.3v-8.814h-1.405v-3.288h6.156l5.99 9.107c-.127-.938-.145-2.203-.145-3.95v-1.87h-1.604v-3.287h6.486v3.288h-1.335zM75.137 63.83c-3.47 0-6.09-.4-6.777-.54v-4.745h4.053v2.326c.524.126 1.853.191 2.766.191 2.727 0 3.058-.459 3.058-1.681 0-1.27-.501-1.31-3.346-1.613-5.382-.552-6.592-1.07-6.592-5.335 0-3.452 2.184-4.32 6.967-4.32 2.29 0 5.899.37 6.715.622v4.345h-4.06v-2.002c-.311-.06-1.97-.122-2.699-.122-2.033 0-2.518.273-2.518 1.433 0 1.167.357 1.395 3.081 1.663 5.558.558 6.917 1.048 6.917 5.154 0 3.625-1.617 4.623-7.565 4.623"/><path d="M30.52 43.448v-3.206h1.44v-2.68c0-2.183.078-4.427.105-5.898-.392 1.325-1.058 3.715-1.77 5.898l-1.25 3.907h-4.048l-1.273-3.907c-.706-2.16-1.347-4.573-1.745-5.898.046 1.512.106 3.715.106 5.898v2.68h1.436v3.206h-6.26v-3.206h1.39v-8.81h-1.39v-3.286h7.736l1.54 4.696c.495 1.542.826 2.706 1.058 3.786.27-1.08.515-2.204 1.02-3.76l1.476-4.722h7.526v3.287h-1.4v8.809h1.4v3.206h-7.096zM17.26 63.617v-3.203h1.392v-8.81H17.26v-3.287h14.368v5.59h-4.06v-2.514h-4.614v3.096h3.201v2.89h-3.2v3.243h4.613V57.74h4.06v5.876zM17.259 45.614h20.358v-1.183H17.26zM17.26 65.607H31.63v-1.185H17.26z" fill="#B9D988"/><path d="M2.703 0a2.71 2.71 0 0 1 2.71 2.704 2.713 2.713 0 0 1-2.71 2.708 2.706 2.706 0 1 1 0-5.412" fill="#EB2736"/><path fill="#2B338C" d="M.755 23.522H4.62V7.909H.755zM8.49 23.522h3.865V0H8.49zM24.517 15.54v2.117c0 .25-.034.513-.1.72a3.242 3.242 0 0 1-1.102 1.504c-.545.404-1.247.68-2.149.68-.586 0-1.097-.175-1.446-.498-.35-.327-.594-.807-.6-1.61.001-.609.157-1.05.425-1.41.399-.543 1.107-.932 2.013-1.17.876-.238 1.925-.324 2.96-.334zm4.016 7.186c-.153-.998-.217-2.274-.217-3.58v-5.723c-.004-1.595-.288-3.273-1.262-4.597a5.042 5.042 0 0 0-2.002-1.608c-.85-.38-1.89-.592-3.124-.592-2.026.002-3.97.554-5.347 1.411l-.363.226.998 2.942.589-.397c.96-.65 2.36-1.045 3.712-1.045h.064c.702 0 1.207.13 1.58.32.56.284.864.702 1.053 1.2.158.412.221.863.231 1.257-2.777.046-4.998.55-6.589 1.546-.838.52-1.49 1.187-1.936 1.978-.443.796-.669 1.705-.669 2.704 0 1.237.447 2.465 1.33 3.402.881.925 2.21 1.53 3.88 1.53h.014c1.84-.002 3.357-.7 4.38-1.645l.167 1.301h3.602l-.09-.63z"/></g></svg>