<svg width="150" height="75" viewBox="0 0 150 75" xmlns="http://www.w3.org/2000/svg"><title>C1B423CE-C546-4DA8-BB3D-33729C46F1DE</title><g fill="none" fill-rule="evenodd"><path d="M7.476 0c1.578 0 2.86 1.27 2.86 2.831 0 1.56-1.282 2.83-2.86 2.83-1.577 0-2.854-1.27-2.854-2.83C4.622 1.27 5.9.001 7.476.001" fill="#EA2134"/><path fill="#2B368C" d="M5.419 24.626h4.083V8.28H5.42zM13.588 24.626h4.088V0h-4.088z"/><g fill="#EA2134"><path d="M5.294 38.184c0-5.564 3.61-9.47 9.779-9.47 4.27 0 6.872 1.42 8.35 3.813l-3.708 2.366c-.937-1.373-2.203-2.202-4.664-2.202-3.143 0-4.996 2.06-4.996 5.47 0 3.432 1.806 5.282 5.348 5.282 3.235 0 4.43-2.466 4.43-3.32v-.092h-3.798v-3.6h7.973v10.514h-2.32l-.728-2.296c-1.337 1.656-3.096 2.724-6.167 2.724-5.745 0-9.499-3.93-9.499-9.189M26.652 46.945h4.129v-17.9h-4.13zM41.472 40.86c0-2.06-.796-3.102-2.346-3.102-1.475 0-2.367.97-2.367 3.078 0 2.06.82 3.27 2.367 3.27 1.525 0 2.346-1.21 2.346-3.247m-8.865.118c0-4.12 2.723-6.604 6.519-6.604 3.8 0 6.474 2.628 6.474 6.463 0 4.143-2.72 6.536-6.496 6.536-3.774 0-6.497-2.346-6.497-6.395M56.055 40.766c0-2.06-.752-3.031-2.321-3.031-1.408 0-2.368 1.255-2.368 3.054 0 1.801.96 3.03 2.368 3.03 1.523 0 2.32-.994 2.32-3.053m-4.665 4.378l.047 1.801h-4.128v-17.9h4.128v7.268c.608-.97 1.666-1.94 3.682-1.94 3.165 0 5.087 2.297 5.087 6.368 0 4.098-1.782 6.536-4.807 6.536-1.9 0-3.188-.737-4.01-2.133M69.347 41.855c-2.555 0-4.22.496-4.22 1.633 0 .618.515.875 1.194.875 1.268 0 3.026-.875 3.026-2.508m-2.015-4.216c-1.737 0-2.745.715-3.38 1.515l-2.6-2.177c1.545-1.754 3.798-2.604 6.471-2.604 2.604 0 5.369.592 5.369 3.953v4.618c0 1.088.328 1.326.916 1.326.305 0 .469-.048.61-.12h.093l-.798 2.7c-.351.143-1.078.286-1.64.286-1.127 0-2.51-.334-2.956-1.612-.985 1.278-2.461 1.824-4.151 1.824-2.39 0-4.126-1.066-4.126-3.506 0-3.528 3.517-4.215 8.139-4.474-.025-1.303-.26-1.729-1.947-1.729M76.425 46.945h4.129v-17.9h-4.129zM7.705 51.889h15.313v3.528H12.301v3.411h8.02v3.525h-8.02v3.837H23.44v3.6H7.705zM25.477 57.549h4.128l-.05 2.153c.823-1.442 2.16-2.487 4.293-2.487 2.345 0 3.94 1.186 3.94 4.146v8.429h-4.127v-6.986c0-1.232-.421-2.06-1.665-2.06-1.549 0-2.391.828-2.391 3.433v5.613h-4.128V57.549zM47.516 61.478c0-1.042-.728-1.443-1.922-1.443-1.175 0-1.9.471-1.9 1.443 0 .97.725 1.42 1.9 1.42 1.172 0 1.922-.403 1.922-1.42m-4.786 9.377c0 .804.775 1.16 2.768 1.16 2.51 0 3.048-.21 3.048-1.019 0-.78-.374-.876-3.258-.922-.846 0-1.548-.048-2.182-.119-.233.261-.376.52-.376.9m-2.648-9.402c0-2.815 2.159-4.237 5.44-4.237 1.947 0 3.893.452 4.83 1.965.66-1.513 1.642-1.989 2.816-1.894v3.481h-.072c-1.289-.285-1.923.26-2.201 1.491-.493 2.25-2.23 3.315-5.397 3.315-.842 0-1.642-.093-2.32-.307-.28.19-.398.404-.398.711 0 .663.444.78 3.352.828 3.752.072 6.355.472 6.355 3.693 0 3.315-2.532 4.192-7.083 4.192-4.476 0-6.19-.807-6.19-2.959 0-1.279.938-1.824 1.946-2.178-1.244-.477-1.617-1.233-1.617-2.297 0-1.468 1.055-2.203 2.182-2.63-1.01-.71-1.643-1.777-1.643-3.174M54.385 69.79h4.126V51.89h-4.126zM62.003 55.915h2.672v-2.603h-2.672v2.603zm-.727 13.875h4.129V57.549h-4.129v12.24zM66.81 67.967l2.157-2.416c.962.828 1.993 1.444 4.244 1.444 1.573 0 1.922-.307 1.922-.827 0-.688-.467-.57-2.72-.831-3.026-.355-5.04-1.135-5.04-4.096 0-2.89 2.53-3.999 5.72-3.999 2.65 0 4.62.635 5.558 1.3l-1.877 2.747c-.75-.52-1.829-.995-3.819-.995-1.619 0-1.807.404-1.807.759 0 .448.35.662 2.25.804 2.743.214 5.77.783 5.77 4.073 0 2.936-2.204 4.215-5.793 4.215-3.026 0-5.112-.759-6.566-2.178M80.76 51.889h4.127v7.766c.82-1.445 2.108-2.44 4.243-2.44 2.346 0 3.942 1.186 3.942 4.146v8.43h-4.128v-6.987c0-1.232-.423-2.06-1.668-2.06-1.545 0-2.389.828-2.389 3.432v5.614H80.76V51.89z"/></g><path d="M30.52 16.268v2.218a2.4 2.4 0 0 1-.107.752 3.4 3.4 0 0 1-1.163 1.576c-.574.422-1.316.71-2.267.713-.622-.003-1.161-.183-1.53-.523-.37-.342-.63-.847-.635-1.685.002-.638.169-1.1.448-1.478.42-.564 1.172-.975 2.127-1.225.93-.247 2.033-.34 3.126-.348zm4.24 7.526c-.158-1.046-.224-2.382-.224-3.749v-5.991c-.003-1.671-.305-3.427-1.336-4.815a5.315 5.315 0 0 0-2.112-1.682c-.903-.401-2-.621-3.302-.621-2.144.003-4.194.58-5.648 1.476l-.384.236 1.051 3.082.624-.417c1.015-.682 2.493-1.094 3.922-1.094h.069c.74 0 1.276.139 1.667.334.593.3.917.738 1.115 1.258.166.432.23.901.247 1.317-2.94.048-5.285.576-6.963 1.617-.887.547-1.579 1.245-2.049 2.073-.468.83-.704 1.785-.704 2.829 0 1.294.47 2.584 1.405 3.56.929.97 2.334 1.605 4.095 1.605h.018c1.945-.004 3.546-.733 4.625-1.724l.177 1.362h3.807l-.1-.656z" fill="#2B368C"/></g></svg>