<svg width="62" height="67" viewBox="0 0 62 67" xmlns="http://www.w3.org/2000/svg" xmlns:xlink="http://www.w3.org/1999/xlink"><title>7D76F566-0FBD-432D-BAF2-D881ACCE9855</title><defs><path id="a" d="M5.323.166H.068v5.253h5.255V.166z"/></defs><g fill="none" fill-rule="evenodd"><g transform="translate(.817 .243)"><mask id="b" fill="#fff"><use xlink:href="#a"/></mask><path d="M2.692.166a2.632 2.632 0 0 1 2.631 2.627 2.631 2.631 0 0 1-2.63 2.626 2.626 2.626 0 0 1 0-5.253" fill="#EA2134" mask="url(#b)"/></g><path fill="#2B368C" d="M1.617 23.258h3.755V8.091H1.617zM9.13 23.258h3.758V.408H9.13zM24.698 15.504v2.057c0 .246-.03.496-.099.699a3.153 3.153 0 0 1-1.069 1.461c-.528.392-1.209.659-2.084.662-.57-.003-1.067-.17-1.406-.486-.341-.317-.58-.786-.585-1.563.003-.592.155-1.02.412-1.371.387-.523 1.078-.905 1.957-1.138.854-.229 1.869-.315 2.874-.321zm3.9 6.982c-.146-.97-.207-2.21-.207-3.48v-5.558c-.003-1.55-.28-3.18-1.23-4.466a4.89 4.89 0 0 0-1.94-1.562c-.83-.372-1.84-.576-3.036-.576-1.972.003-3.857.537-5.195 1.369l-.352.22.967 2.86.573-.388c.934-.631 2.293-1.015 3.607-1.015h.063c.68 0 1.172.13 1.532.31.547.277.844.685 1.026 1.168.153.4.212.836.227 1.222-2.703.045-4.86.534-6.403 1.5-.815.508-1.45 1.155-1.883 1.923-.43.771-.647 1.656-.647 2.625 0 1.2.43 2.397 1.29 3.304.855.9 2.147 1.488 3.767 1.488h.016c1.79-.004 3.26-.68 4.253-1.6l.162 1.265h3.5l-.09-.61z"/><path d="M.977 39.912l2.57-.386c.05.885.218 1.539.507 1.96.29.423.717.635 1.28.635.49 0 .889-.156 1.195-.465.306-.31.459-.718.459-1.225 0-.909-.725-2.084-2.173-3.524l-.254-.254c-1.416-1.416-2.325-2.504-2.727-3.265a5.096 5.096 0 0 1-.603-2.419c0-1.231.405-2.267 1.213-3.108.809-.84 1.796-1.261 2.963-1.261 1.134 0 2.064.388 2.787 1.165.725.776 1.14 1.828 1.243 3.156l-2.63.373c-.049-.78-.187-1.339-.417-1.677-.229-.339-.58-.507-1.056-.507-.434 0-.783.147-1.043.44-.262.295-.393.687-.393 1.177 0 1.014.845 2.338 2.534 3.971l.157.157c1.24 1.207 2.052 2.192 2.438 2.957.387.764.58 1.62.58 2.57 0 1.272-.394 2.316-1.183 3.132-.788.817-1.786 1.225-2.994 1.225-1.335 0-2.395-.427-3.179-1.28-.785-.852-1.21-2.034-1.274-3.547" fill="#EE542E"/><path d="M1.255 40.138c.094 1.33.494 2.385 1.19 3.143.739.803 1.715 1.193 2.985 1.193 1.143 0 2.06-.373 2.803-1.144.736-.761 1.109-1.754 1.109-2.948 0-.903-.186-1.727-.551-2.45-.371-.736-1.175-1.707-2.387-2.887l-.16-.16c-1.756-1.698-2.61-3.058-2.61-4.158 0-.555.154-1.01.458-1.353.313-.35.73-.529 1.242-.529.565 0 .995.21 1.275.623.228.337.373.838.44 1.525l2.1-.3c-.128-1.144-.514-2.069-1.148-2.748-.679-.727-1.527-1.08-2.594-1.08-1.102 0-2.008.385-2.772 1.18-.756.785-1.14 1.77-1.14 2.924 0 .805.193 1.578.573 2.296.388.733 1.29 1.81 2.681 3.201l.254.254c1.513 1.505 2.25 2.719 2.25 3.711 0 .577-.181 1.052-.535 1.411-.356.36-.822.544-1.384.544-.653 0-1.157-.253-1.497-.75-.288-.418-.463-1.01-.533-1.806l-2.049.308zm4.175 4.866c-1.406 0-2.541-.46-3.375-1.364-.823-.897-1.275-2.147-1.342-3.717l-.01-.237 3.094-.465.016.29c.045.832.2 1.446.46 1.825.24.35.587.52 1.061.52.421 0 .75-.127 1.007-.386.257-.26.381-.6.381-1.039 0-.832-.704-1.955-2.094-3.336l-.253-.254c-1.449-1.449-2.356-2.538-2.775-3.328a5.38 5.38 0 0 1-.634-2.544c0-1.296.433-2.403 1.287-3.292.856-.89 1.918-1.342 3.154-1.342 1.205 0 2.208.42 2.981 1.248.763.819 1.205 1.934 1.314 3.317l.02.248-3.162.449-.018-.286c-.045-.729-.17-1.249-.37-1.545-.18-.264-.453-.39-.838-.39-.358 0-.635.114-.846.35-.218.247-.326.574-.326 1.001 0 .935.826 2.207 2.455 3.78l.16.16c1.269 1.237 2.083 2.227 2.486 3.025.404.799.608 1.704.608 2.69 0 1.336-.423 2.453-1.257 3.316-.836.867-1.907 1.306-3.184 1.306zM11.037 26.89h2.752v13.516c0 .507.13.912.391 1.214.262.301.606.452 1.033.452.426 0 .76-.149 1.002-.446.241-.298.362-.705.362-1.22V26.89h2.74v13.046c0 1.537-.357 2.717-1.07 3.543-.711.824-1.73 1.236-3.058 1.236-1.344 0-2.371-.414-3.084-1.243-.712-.83-1.068-2.032-1.068-3.609V26.89z" fill="#EE542E"/><path d="M11.302 27.155v12.708c0 1.505.338 2.661 1.004 3.436.665.775 1.608 1.151 2.883 1.151 1.258 0 2.193-.375 2.859-1.145.665-.77 1.003-1.905 1.003-3.37v-12.78h-2.21v13.251c0 .576-.142 1.042-.421 1.387-.293.36-.7.544-1.207.544-.505 0-.92-.183-1.232-.544-.303-.35-.458-.817-.458-1.387V27.155h-2.221zm3.887 17.825c-1.42 0-2.524-.45-3.285-1.336-.75-.873-1.132-2.146-1.132-3.78v-13.24h3.282v13.782c0 .446.107.785.327 1.04.21.243.482.36.832.36.345 0 .606-.112.796-.348.2-.247.303-.601.303-1.052V26.624h3.27v13.312c0 1.595-.382 2.846-1.133 3.715-.761.882-1.857 1.329-3.26 1.329zM24.343 34.746h1.062c.628 0 1.06-.19 1.297-.573.238-.382.357-1.112.357-2.19 0-.99-.125-1.666-.375-2.028-.249-.361-.707-.543-1.375-.543h-.966v5.334zm-2.691 9.595V26.889h3.946c1.472 0 2.54.399 3.204 1.195.664.796.996 2.08.996 3.85 0 1.65-.321 2.947-.965 3.892-.644.946-1.525 1.419-2.643 1.419h-1.847v7.096h-2.691z" fill="#EE542E"/><path d="M24.608 34.481h.797c.535 0 .885-.146 1.073-.448.144-.232.316-.776.316-2.05 0-1.159-.179-1.66-.329-1.878-.194-.284-.584-.428-1.156-.428h-.701v4.804zm.797.53h-1.327v-5.864h1.23c.758 0 1.294.222 1.594.658.283.41.422 1.123.422 2.178 0 1.138-.13 1.9-.396 2.33-.288.463-.8.698-1.523.698zm-3.489 9.065h2.162V36.98h2.112c1.033 0 1.827-.426 2.424-1.302.61-.897.92-2.156.92-3.744 0-1.698-.315-2.936-.935-3.68-.608-.73-1.618-1.1-3-1.1h-3.683v16.922zm2.692.53h-3.221V26.624h4.211c1.548 0 2.695.435 3.408 1.29.702.843 1.057 2.194 1.057 4.02 0 1.696-.34 3.056-1.011 4.042-.694 1.017-1.656 1.534-2.862 1.534h-1.582v7.096zM31.434 44.341V26.89h7.024v2.522h-4.333v4.574h3.123v2.522h-3.123v5.214h4.333v2.619z" fill="#EE542E"/><path d="M31.699 44.076h6.493v-2.09h-4.331v-5.743h3.121v-1.992h-3.121v-5.104h4.331v-1.992H31.7v16.921zm7.024.53H31.17V26.625h7.554v3.052H34.39v4.043h3.122v3.053H34.39v4.684h4.333v3.149zM42.953 29.412v5.07h1.063c.62 0 1.05-.188 1.29-.562.243-.374.363-1.069.363-2.082 0-.917-.127-1.551-.38-1.901-.254-.35-.71-.525-1.37-.525h-.966zm0 7.591v7.338h-2.69V26.89h3.946c1.48 0 2.55.398 3.21 1.194.66.796.99 2.08.99 3.85 0 1.094-.133 1.98-.399 2.655a3.526 3.526 0 0 1-1.303 1.641l1.98 8.111h-2.788l-1.666-7.338h-1.28z" fill="#EE542E"/><path d="M43.219 34.215h.797c.528 0 .878-.143 1.069-.44.146-.225.32-.744.32-1.937 0-1.067-.18-1.538-.33-1.746-.2-.276-.589-.415-1.157-.415h-.7v4.538zm.797.531h-1.327v-5.599h1.23c.747 0 1.28.213 1.584.635.29.4.432 1.072.432 2.056 0 1.076-.133 1.804-.405 2.225-.292.453-.802.683-1.514.683zm2.094 9.33h2.24l-1.943-7.96.15-.103a3.28 3.28 0 0 0 1.207-1.52c.252-.643.38-1.503.38-2.559 0-1.699-.312-2.937-.929-3.68-.604-.73-1.615-1.1-3.006-1.1h-3.681v16.922h2.16v-7.338h1.757l1.665 7.338zm2.913.53h-3.336l-1.665-7.338h-.803v7.338h-3.222V26.625h4.212c1.557 0 2.705.434 3.414 1.29.697.842 1.05 2.194 1.05 4.02 0 1.122-.139 2.048-.416 2.751a3.794 3.794 0 0 1-1.25 1.655l2.016 8.265zM.265 66.171v-2.692c.04 0 .11.008.205.024.17.017.282.025.338.025.45 0 .798-.125 1.044-.374.246-.25.368-.612.368-1.087V48.719h2.692v12.829c0 1.57-.258 2.732-.772 3.488-.515.757-1.304 1.135-2.366 1.135H.265z" fill="#EE542E"/><path d="M.53 65.906h1.244c.978 0 1.68-.333 2.146-1.019.483-.708.726-1.831.726-3.34V48.985h-2.16v13.083c0 .545-.15.973-.445 1.273-.296.3-.711.453-1.233.453-.05 0-.143-.006-.278-.018v2.131zm1.244.53H0v-3.222h.265c.05 0 .132.009.249.028.138.013.242.021.294.021.38 0 .66-.096.855-.295.194-.197.293-.5.293-.901V48.454h3.22v13.094c0 1.617-.275 2.84-.818 3.638-.565.83-1.434 1.25-2.584 1.25zM7.054 48.72h2.752v13.517c0 .506.13.91.392 1.213.262.3.605.452 1.032.452.426 0 .76-.15 1.001-.446.242-.298.363-.705.363-1.22V48.72h2.74v13.046c0 1.537-.357 2.718-1.069 3.543-.712.825-1.731 1.236-3.06 1.236-1.343 0-2.371-.413-3.083-1.243-.712-.828-1.068-2.03-1.068-3.608V48.719z" fill="#EE542E"/><path d="M7.318 48.984v12.71c0 1.504.339 2.66 1.005 3.435.666.774 1.608 1.151 2.883 1.151 1.259 0 2.193-.375 2.859-1.145.666-.77 1.004-1.905 1.004-3.37v-12.78h-2.21v13.251c0 .576-.142 1.042-.422 1.387-.293.36-.699.544-1.207.544-.505 0-.919-.183-1.232-.544-.303-.35-.457-.816-.457-1.387V48.984H7.318zm3.888 17.826c-1.418 0-2.523-.45-3.284-1.336-.752-.874-1.133-2.146-1.133-3.78v-13.24h3.282v13.782c0 .446.107.785.327 1.04.21.243.484.36.832.36.346 0 .606-.113.796-.347.2-.249.303-.602.303-1.053V48.454h3.27v13.311c0 1.596-.382 2.847-1.133 3.716-.76.881-1.858 1.329-3.26 1.329zM17.692 66.171V48.719h2.415l3.416 10.428c.063.201.142.467.235.796.092.33.187.684.283 1.063a32.006 32.006 0 0 1-.216-1.407 8.184 8.184 0 0 1-.085-.947V48.72h2.522v17.452H23.74l-3.283-9.643c-.016-.04-.037-.1-.06-.181a18.613 18.613 0 0 1-.508-1.714c.097.612.172 1.12.224 1.527.052.406.079.702.079.886v9.125h-2.5z" fill="#EE542E"/><path d="M23.93 65.906h2.067V48.984h-1.992v9.668c0 .188.027.496.082.913.054.421.128.89.215 1.395l-.517.11a46.8 46.8 0 0 0-.282-1.055 24.35 24.35 0 0 0-.233-.788l-3.355-10.243h-1.957v16.922h1.969v-8.86a7.61 7.61 0 0 0-.077-.853c-.052-.404-.126-.91-.222-1.519l.52-.101c.11.472.278 1.04.5 1.688.023.08.041.132.054.167l3.227 9.478zm2.597.53H23.55l-3.094-9.088v9.088h-3.028V48.454h2.87l3.176 9.696v-9.696h3.053v17.982zM28.766 66.171h2.74V48.72h-2.74z" fill="#EE542E"/><path d="M29.032 65.906h2.209V48.984h-2.21v16.922zm-.53.53h3.269V48.454H28.5v17.982zM39.152 62.32v-9.739c0-.603-.117-1.056-.35-1.357-.233-.302-.579-.453-1.038-.453-.459 0-.804.151-1.038.453-.234.301-.35.754-.35 1.357v9.74c0 .604.116 1.058.35 1.363.234.306.58.46 1.038.46.459 0 .805-.154 1.038-.46.233-.305.35-.76.35-1.363zm-5.515-9.57c0-1.376.374-2.454 1.122-3.234.748-.78 1.782-1.171 3.102-1.171 1.247 0 2.234.4 2.962 1.201.729.8 1.092 1.893 1.092 3.277v8.942c0 1.53-.36 2.708-1.079 3.537-.72.829-1.744 1.243-3.072 1.243-1.344 0-2.367-.412-3.072-1.237-.704-.825-1.055-2.03-1.055-3.615V52.75z" fill="#EE542E"/><path d="M37.764 51.036c-.375 0-.647.114-.828.35-.196.253-.294.654-.294 1.195v9.74c0 .541.098.947.295 1.203.182.238.452.354.827.354.374 0 .645-.116.827-.354.197-.256.296-.662.296-1.203v-9.74c0-.54-.1-.942-.294-1.195-.182-.236-.453-.35-.83-.35m0 13.373c-.542 0-.963-.19-1.247-.564-.272-.355-.404-.854-.404-1.524v-9.74c0-.67.132-1.167.405-1.52.284-.368.705-.555 1.247-.555.542 0 .963.187 1.247.555.273.353.406.85.406 1.52v9.74c0 .66-.136 1.173-.405 1.524-.284.374-.704.564-1.248.564m.097-15.799c-1.24 0-2.218.366-2.91 1.09-.697.725-1.05 1.752-1.05 3.05v8.943c0 1.513.334 2.672.993 3.443.657.77 1.596 1.144 2.87 1.144 1.26 0 2.199-.377 2.872-1.152.673-.775 1.015-1.907 1.015-3.363v-8.943c0-1.309-.344-2.351-1.023-3.098-.682-.75-1.587-1.114-2.767-1.114m-.097 18.2c-1.419 0-2.52-.448-3.273-1.33-.743-.87-1.119-2.144-1.119-3.787V52.75c0-1.44.402-2.59 1.196-3.417.796-.831 1.904-1.253 3.293-1.253 1.318 0 2.381.434 3.159 1.288.77.847 1.16 2.01 1.16 3.454v8.943c0 1.588-.385 2.836-1.144 3.71-.77.886-1.87 1.335-3.272 1.335M46.787 51.242v5.069h1.06c.62 0 1.05-.188 1.293-.562.241-.373.361-1.068.361-2.082 0-.917-.126-1.55-.38-1.9-.254-.35-.71-.525-1.37-.525h-.964zm0 7.591v7.338h-2.693V48.72h3.947c1.48 0 2.55.398 3.21 1.195.66.796.99 2.08.99 3.85 0 1.094-.133 1.979-.398 2.655a3.532 3.532 0 0 1-1.304 1.642l1.98 8.11H49.73l-1.666-7.338h-1.278z" fill="#EE542E"/><path d="M47.05 56.045h.798c.528 0 .878-.143 1.068-.44.147-.225.32-.745.32-1.938 0-1.066-.179-1.537-.33-1.745-.2-.276-.587-.416-1.154-.416h-.701v4.54zm.798.53H46.52v-5.598h1.23c.747 0 1.28.213 1.585.634.29.4.43 1.073.43 2.056 0 1.076-.132 1.804-.404 2.226-.293.453-.801.683-1.514.683zm2.094 9.331h2.24l-1.944-7.96.15-.103a3.283 3.283 0 0 0 1.208-1.521c.253-.642.38-1.503.38-2.558 0-1.698-.312-2.937-.929-3.681-.603-.73-1.615-1.099-3.006-1.099H44.36v16.922h2.16v-7.338h1.757l1.665 7.338zm2.914.53h-3.337l-1.665-7.338h-.803v7.338h-3.222V48.454h4.212c1.556 0 2.705.435 3.414 1.291.697.842 1.05 2.194 1.05 4.02 0 1.122-.139 2.047-.416 2.75a3.793 3.793 0 0 1-1.25 1.655l2.017 8.266zM53.358 61.741l2.57-.385c.048.885.218 1.538.507 1.96.29.423.715.635 1.28.635.49 0 .888-.156 1.195-.466.305-.309.458-.718.458-1.224 0-.91-.725-2.084-2.172-3.524-.114-.113-.197-.198-.254-.255-1.416-1.415-2.326-2.503-2.728-3.264a5.1 5.1 0 0 1-.603-2.42c0-1.23.405-2.266 1.213-3.107.808-.841 1.796-1.262 2.962-1.262 1.135 0 2.065.39 2.789 1.166.724.775 1.138 1.828 1.243 3.155l-2.63.375c-.05-.781-.188-1.34-.418-1.678-.229-.338-.581-.507-1.055-.507-.434 0-.783.147-1.044.44-.262.295-.393.687-.393 1.177 0 1.014.845 2.337 2.535 3.971l.156.156c1.24 1.207 2.052 2.193 2.439 2.957.386.765.58 1.622.58 2.572 0 1.27-.395 2.314-1.184 3.131-.788.818-1.786 1.225-2.993 1.225-1.336 0-2.395-.426-3.18-1.279-.784-.853-1.209-2.036-1.273-3.549" fill="#EE542E"/><path d="M53.553 61.802c.093 1.33.494 2.387 1.19 3.144.738.802 1.715 1.193 2.985 1.193 1.143 0 2.06-.373 2.803-1.143.735-.763 1.108-1.754 1.108-2.948 0-.904-.184-1.729-.55-2.452-.372-.735-1.176-1.707-2.387-2.886l-.16-.16c-1.756-1.698-2.61-3.059-2.61-4.157 0-.556.153-1.01.458-1.353.312-.351.73-.53 1.242-.53.566 0 .994.21 1.274.623.23.337.373.837.44 1.525l2.101-.3c-.13-1.144-.515-2.068-1.149-2.748-.677-.727-1.526-1.08-2.595-1.08-1.1 0-2.007.386-2.77 1.18-.757.785-1.14 1.77-1.14 2.924 0 .806.192 1.578.573 2.296.388.733 1.29 1.81 2.68 3.2l.254.255c1.514 1.505 2.25 2.72 2.25 3.71 0 .578-.18 1.053-.535 1.412-.356.36-.82.543-1.383.543-.653 0-1.157-.252-1.498-.749-.287-.418-.462-1.01-.532-1.806l-2.05.307zm4.175 4.868c-1.406 0-2.542-.46-3.375-1.365-.824-.897-1.276-2.147-1.343-3.717L53 61.35l3.094-.465.016.29c.045.832.2 1.447.46 1.826.24.35.587.518 1.062.518.42 0 .75-.126 1.006-.385.258-.26.382-.6.382-1.04 0-.831-.704-1.953-2.095-3.335l-.253-.254c-1.448-1.449-2.356-2.537-2.774-3.329a5.378 5.378 0 0 1-.634-2.543c0-1.295.433-2.403 1.286-3.292.857-.89 1.918-1.342 3.153-1.342 1.206 0 2.21.42 2.983 1.25.762.816 1.204 1.932 1.313 3.315l.02.248-3.161.45-.019-.286c-.045-.73-.17-1.25-.37-1.546-.179-.263-.453-.391-.837-.391-.359 0-.636.116-.846.352-.22.246-.325.573-.325 1 0 .935.825 2.207 2.453 3.78l.16.16c1.251 1.219 2.089 2.238 2.487 3.025.403.799.608 1.704.608 2.69 0 1.337-.423 2.453-1.257 3.316-.836.867-1.908 1.307-3.184 1.307z" fill="#EE542E"/></g></svg>