<svg width="220" height="220" viewBox="0 0 220 220" xmlns="http://www.w3.org/2000/svg" xmlns:xlink="http://www.w3.org/1999/xlink"><title>CAB0C124-990D-4F00-9F1A-E9BE0F3C0B71</title><defs><ellipse id="b" cx="110" cy="110" rx="95" ry="95"/><filter x="-50%" y="-50%" width="200%" height="200%" filterUnits="objectBoundingBox" id="a"><feOffset in="SourceAlpha" result="shadowOffsetOuter1"/><feGaussianBlur stdDeviation="5" in="shadowOffsetOuter1" result="shadowBlurOuter1"/><feColorMatrix values="0 0 0 0 0 0 0 0 0 0 0 0 0 0 0 0 0 0 0.197661911 0" in="shadowBlurOuter1"/></filter></defs><g fill="none" fill-rule="evenodd"><ellipse fill="#FFF" cx="110" cy="110" rx="110" ry="110"/><use fill="#000" filter="url(#a)" xlink:href="#b"/><use fill="#FFF" xlink:href="#b"/><g><path d="M66.68 153.314h1.843c.022.505.031.834.031.98 0 .798-.163 1.426-.488 1.889-.444.639-1.149.962-2.116.962-.81 0-1.446-.298-1.91-.893-.385-.471-.574-1.167-.574-2.081v-4.9c0-1.003.216-1.739.64-2.226.43-.478 1.078-.723 1.949-.723.76 0 1.36.235 1.799.712.446.464.669 1.113.669 1.916v3.097h-3.216v2.322c0 .723.226 1.085.675 1.085.271 0 .461-.11.577-.33.088-.162.126-.478.12-.92V153.313zm-1.373-2.735h1.372v-1.781c0-.522-.226-.78-.682-.78-.457 0-.69.258-.69.78v1.78zM75.106 156.998H73.31l-.044-.988c-.657.756-1.25 1.135-1.774 1.135-.215 0-.421-.058-.633-.176-.21-.11-.37-.257-.474-.439-.196-.306-.292-.928-.292-1.871v-5.854c0-.933.096-1.557.292-1.876a1.24 1.24 0 0 1 .47-.44c.206-.114.418-.167.626-.167.522 0 1.12.38 1.785 1.138v-4.6h1.841v14.138zm-1.841-8.558c-.338-.277-.62-.421-.839-.421-.325 0-.495.265-.495.786v5.854c0 .526.17.786.495.786.22 0 .501-.139.839-.424v-6.581zM81.71 156.998h-1.68l-.16-.908c-.683.705-1.28 1.055-1.775 1.055-.211 0-.419-.058-.631-.17a1.187 1.187 0 0 1-.473-.42c-.193-.303-.293-.914-.293-1.824v-8.267h1.84v8.195c0 .526.164.786.49.786.224 0 .505-.139.842-.424v-8.557h1.84v10.534zM88.316 150.153h-1.842v-.894c0-.456-.037-.768-.122-.92-.115-.22-.316-.329-.587-.329-.437 0-.664.359-.664 1.085v5.274c0 .723.227 1.085.664 1.085.271 0 .472-.111.587-.33.085-.151.122-.462.122-.92v-1.069h1.842c.02.6.032.974.032 1.118 0 .825-.16 1.467-.485 1.93-.447.64-1.148.962-2.116.962-.808 0-1.446-.298-1.912-.893-.385-.47-.572-1.167-.572-2.08v-4.88c0-.91.187-1.612.572-2.092.466-.586 1.104-.878 1.912-.878.968 0 1.669.319 2.116.959.325.464.485 1.092.485 1.883 0 .143-.011.468-.032.99M94.77 156.998h-1.914a4.811 4.811 0 0 1-.128-.862c-.447.676-.975 1.01-1.572 1.01-1.08 0-1.619-.894-1.619-2.662 0-.834.17-1.54.507-2.106.314-.529.902-1.072 1.76-1.615.428-.281.74-.49.924-.61v-1.185c0-.377-.024-.615-.072-.713-.09-.158-.257-.236-.499-.236-.33 0-.539.161-.636.475-.053.188-.097.546-.125 1.066h-1.79c.086-.995.244-1.702.482-2.12.415-.749 1.114-1.118 2.102-1.118.745 0 1.335.217 1.757.66.414.422.622 1.042.622 1.856v6.462c.006.742.075 1.303.2 1.698zm-2.042-5.4c-.538.449-.905.883-1.103 1.32-.166.366-.25.833-.25 1.397 0 .744.196 1.12.584 1.12.262 0 .522-.183.77-.563v-3.275zM99.795 148.166H98.48v6.194c0 .637.3.96.894.96a5.9 5.9 0 0 0 .42-.02v1.698c-.465.099-.817.147-1.062.147-.652 0-1.175-.177-1.55-.532-.369-.338-.543-.88-.543-1.623v-6.824h-.891v-1.702h.89v-2.898h1.842v2.898h1.315v1.702zM100.75 156.998h1.836v-10.534h-1.836v10.534zm0-12.252h1.836v-1.887h-1.836v1.887zM109.198 149.293v4.878c0 1.979-.845 2.974-2.527 2.974-1.684 0-2.532-.995-2.532-2.974v-4.878c0-1.985.848-2.97 2.532-2.97 1.682 0 2.527.985 2.527 2.97m-3.219-.303v5.484c0 .649.233.97.692.97.454 0 .683-.321.683-.97v-5.484c0-.646-.23-.971-.683-.971-.459 0-.692.325-.692.971M110.747 146.464h1.8l.041.91c.684-.699 1.28-1.052 1.777-1.052.212 0 .42.052.633.163.21.11.366.255.47.425.195.306.289.913.289 1.823v8.265h-1.836v-8.193c0-.521-.17-.786-.487-.786-.227 0-.506.144-.846.421v8.558h-1.841v-10.534zM121.327 156.998v-8.832h-.844v-1.702h.844v-1.242c0-.775.143-1.335.427-1.686.365-.472.915-.71 1.638-.71.204 0 .438.016.71.033v1.704a2.116 2.116 0 0 0-.26-.015c-.45 0-.676.223-.676.674v1.242h.935v1.702h-.935v8.832h-1.839zM130.305 149.293v4.878c0 1.979-.845 2.974-2.533 2.974-1.684 0-2.522-.995-2.522-2.974v-4.878c0-1.985.838-2.97 2.522-2.97 1.688 0 2.533.985 2.533 2.97m-3.22-.303v5.484c0 .649.233.97.687.97.461 0 .69-.321.69-.97v-5.484c0-.646-.229-.971-.69-.971-.454 0-.687.325-.687.971M131.854 146.464h1.842v1.313c.493-1.01 1.12-1.497 1.892-1.455v2.047a4.726 4.726 0 0 0-.7-.08c-.796 0-1.192.522-1.192 1.567v7.142h-1.842v-10.534zM140.082 156.998h1.845v-14.14h-1.845zM143.512 156.998h1.841v-10.534h-1.84v10.534zm0-12.252h1.841v-1.887h-1.84v1.887zM147.227 156.998v-8.832h-.84v-1.702h.84v-1.242c0-.775.144-1.335.428-1.686.367-.472.912-.71 1.643-.71.199 0 .435.016.707.033v1.704a2.13 2.13 0 0 0-.258-.015c-.452 0-.678.223-.678.674v1.242h.936v1.702h-.936v8.832h-1.842zM154.365 153.314h1.846c.016.505.026.834.026.98 0 .798-.164 1.426-.484 1.889-.448.639-1.152.962-2.117.962-.81 0-1.447-.298-1.91-.893-.383-.471-.573-1.167-.573-2.081v-4.9c0-1.003.213-1.739.639-2.226.426-.478 1.081-.723 1.95-.723.756 0 1.356.235 1.798.712.448.464.67 1.113.67 1.916v3.097h-3.222v2.322c0 .723.23 1.085.682 1.085.268 0 .46-.11.57-.33.09-.162.133-.478.125-.92V153.313zm-1.377-2.735h1.377v-1.781c0-.522-.228-.78-.681-.78-.46 0-.696.258-.696.78v1.78z" fill="#2B368C"/><path d="M76.346 62.058c4.44 0 8.041 3.586 8.041 8.005 0 4.418-3.601 8.01-8.04 8.01-4.438 0-8.044-3.592-8.044-8.01 0-4.419 3.606-8.005 8.043-8.005" fill="#EC102C"/><path fill="#2B368C" d="M70.558 131.673H82.05V85.467H70.56zM93.537 131.673h11.488V62.058H93.537zM141.166 108.055v6.268c.003.725-.087 1.51-.295 2.112-.548 1.604-1.66 3.24-3.274 4.457-1.611 1.21-3.706 2.018-6.374 2.023-1.755-.005-3.264-.517-4.31-1.476-1.047-.964-1.768-2.404-1.785-4.776.011-1.793.482-3.097 1.272-4.171 1.176-1.598 3.279-2.756 5.98-3.466 2.61-.692 5.714-.955 8.786-.97zm11.938 21.275c-.451-2.961-.64-6.739-.64-10.61v-16.929c-.007-4.724-.851-9.695-3.755-13.611-1.446-1.958-3.418-3.622-5.947-4.754-2.531-1.138-5.609-1.763-9.283-1.758-6.03.008-11.803 1.64-15.886 4.172l-1.08.67 2.963 8.714 1.754-1.18c2.855-1.93 7.007-3.1 11.023-3.09H132.45c2.082 0 3.587.384 4.703.939 1.662.845 2.56 2.091 3.128 3.553.462 1.217.642 2.56.684 3.722-8.262.133-14.857 1.633-19.593 4.58-2.479 1.543-4.436 3.506-5.755 5.855-1.313 2.346-1.975 5.044-1.975 7.995 0 3.653 1.31 7.303 3.947 10.06 2.62 2.757 6.564 4.544 11.525 4.544h.042c5.47-.007 9.98-2.08 13.015-4.887l.507 3.86h10.707l-.28-1.845z"/></g></g></svg>